REM DIRINDEX 1\5,1\2\6,1\2\7,1\3\8,1\3\9,1\4\10,1\4\11,1\4\12
REM DIRNAME folder01,folder02,folder03,folder04,folder05,folder06,folder07,folder08,folder09,folder10,folder11,folder12
TITLE ""
FILE "EJE_DB3000_5th_2A_30.mp3" MP3
  TRACK 01 AUDIO
    TITLE "0:"
    INDEX 01 00:00:00
  TRACK 02 AUDIO
    TITLE "10:cjc026_07689"
    INDEX 01 00:00:05
  TRACK 03 AUDIO
    TITLE "0:"
    INDEX 01 00:00:64
  TRACK 04 AUDIO
    TITLE "11:cjc026_07690"
    INDEX 01 00:01:15
  TRACK 05 AUDIO
    TITLE "0:"
    INDEX 01 00:02:08
  TRACK 06 AUDIO
    TITLE "12:cjc026_07691"
    INDEX 01 00:02:34
  TRACK 07 AUDIO
    TITLE "0:"
    INDEX 01 00:03:19
  TRACK 08 AUDIO
    TITLE "10:cjc026_07692"
    INDEX 01 00:03:43
  TRACK 09 AUDIO
    TITLE "0:"
    INDEX 01 00:04:38
  TRACK 10 AUDIO
    TITLE "11:cjc026_07693"
    INDEX 01 00:04:64
  TRACK 11 AUDIO
    TITLE "0:"
    INDEX 01 00:05:63
  TRACK 12 AUDIO
    TITLE "12:cjc026_07694"
    INDEX 01 00:06:14
  TRACK 13 AUDIO
    TITLE "0:"
    INDEX 01 00:07:07
  TRACK 14 AUDIO
    TITLE "10:cjc026_07695"
    INDEX 01 00:07:33
  TRACK 15 AUDIO
    TITLE "0:"
    INDEX 01 00:08:26
  TRACK 16 AUDIO
    TITLE "11:cjc026_07696"
    INDEX 01 00:08:48
  TRACK 17 AUDIO
    TITLE "0:"
    INDEX 01 00:10:10
  TRACK 18 AUDIO
    TITLE "12:cjc026_07697"
    INDEX 01 00:10:35
  TRACK 19 AUDIO
    TITLE "0:"
    INDEX 01 00:11:25
  TRACK 20 AUDIO
    TITLE "10:cjc026_07698"
    INDEX 01 00:11:50
  TRACK 21 AUDIO
    TITLE "0:"
    INDEX 01 00:12:34
  TRACK 22 AUDIO
    TITLE "11:cjc026_07699"
    INDEX 01 00:12:61
  TRACK 23 AUDIO
    TITLE "0:"
    INDEX 01 00:13:69
  TRACK 24 AUDIO
    TITLE "12:cjc026_07700"
    INDEX 01 00:14:17
  TRACK 25 AUDIO
    TITLE "0:"
    INDEX 01 00:15:01
  TRACK 26 AUDIO
    TITLE "10:cjc026_07701"
    INDEX 01 00:15:30
  TRACK 27 AUDIO
    TITLE "0:"
    INDEX 01 00:16:22
  TRACK 28 AUDIO
    TITLE "11:cjc026_07702"
    INDEX 01 00:16:48
  TRACK 29 AUDIO
    TITLE "0:"
    INDEX 01 00:18:03
  TRACK 30 AUDIO
    TITLE "12:cjc026_07703"
    INDEX 01 00:18:31
  TRACK 31 AUDIO
    TITLE "0:"
    INDEX 01 00:19:22
  TRACK 32 AUDIO
    TITLE "10:cjc026_07704"
    INDEX 01 00:19:48
  TRACK 33 AUDIO
    TITLE "0:"
    INDEX 01 00:21:41
  TRACK 34 AUDIO
    TITLE "11:cjc026_07705"
    INDEX 01 00:21:66
  TRACK 35 AUDIO
    TITLE "0:"
    INDEX 01 00:23:48
  TRACK 36 AUDIO
    TITLE "12:cjc026_07706"
    INDEX 01 00:23:73
  TRACK 37 AUDIO
    TITLE "0:"
    INDEX 01 00:25:66
  TRACK 38 AUDIO
    TITLE "10:cjc026_07707"
    INDEX 01 00:26:17
  TRACK 39 AUDIO
    TITLE "0:"
    INDEX 01 00:27:12
  TRACK 40 AUDIO
    TITLE "11:cjc026_07708"
    INDEX 01 00:27:38
  TRACK 41 AUDIO
    TITLE "0:"
    INDEX 01 00:28:51
  TRACK 42 AUDIO
    TITLE "12:cjc026_07709"
    INDEX 01 00:29:01
  TRACK 43 AUDIO
    TITLE "0:"
    INDEX 01 00:29:74
  TRACK 44 AUDIO
    TITLE "10:cjc026_07710"
    INDEX 01 00:30:22
  TRACK 45 AUDIO
    TITLE "0:"
    INDEX 01 00:31:16
  TRACK 46 AUDIO
    TITLE "11:cjc026_07711"
    INDEX 01 00:31:41
  TRACK 47 AUDIO
    TITLE "0:"
    INDEX 01 00:32:60
  TRACK 48 AUDIO
    TITLE "12:cjc026_07712"
    INDEX 01 00:33:11
  TRACK 49 AUDIO
    TITLE "0:"
    INDEX 01 00:34:02
  TRACK 50 AUDIO
    TITLE "10:cjc026_07713"
    INDEX 01 00:34:30
  TRACK 51 AUDIO
    TITLE "0:"
    INDEX 01 00:35:21
  TRACK 52 AUDIO
    TITLE "11:cjc026_07714"
    INDEX 01 00:35:49
  TRACK 53 AUDIO
    TITLE "0:"
    INDEX 01 00:36:58
  TRACK 54 AUDIO
    TITLE "12:cjc026_07715"
    INDEX 01 00:37:10
  TRACK 55 AUDIO
    TITLE "0:"
    INDEX 01 00:38:02
  TRACK 56 AUDIO
    TITLE "10:cjc026_07716"
    INDEX 01 00:38:30
  TRACK 57 AUDIO
    TITLE "0:"
    INDEX 01 00:39:19
  TRACK 58 AUDIO
    TITLE "11:cjc026_07717"
    INDEX 01 00:39:45
  TRACK 59 AUDIO
    TITLE "0:"
    INDEX 01 00:40:60
  TRACK 60 AUDIO
    TITLE "12:cjc026_07718"
    INDEX 01 00:41:12
  TRACK 61 AUDIO
    TITLE "0:"
    INDEX 01 00:42:02
  TRACK 62 AUDIO
    TITLE "10:cjc026_07719"
    INDEX 01 00:42:29
  TRACK 63 AUDIO
    TITLE "0:"
    INDEX 01 00:43:11
  TRACK 64 AUDIO
    TITLE "11:cjc026_07720"
    INDEX 01 00:43:42
  TRACK 65 AUDIO
    TITLE "0:"
    INDEX 01 00:44:54
  TRACK 66 AUDIO
    TITLE "12:cjc026_07721"
    INDEX 01 00:45:06
  TRACK 67 AUDIO
    TITLE "0:"
    INDEX 01 00:45:63
  TRACK 68 AUDIO
    TITLE "10:cjc026_07722"
    INDEX 01 00:46:21
  TRACK 69 AUDIO
    TITLE "0:"
    INDEX 01 00:47:17
  TRACK 70 AUDIO
    TITLE "11:cjc026_07723"
    INDEX 01 00:47:44
  TRACK 71 AUDIO
    TITLE "0:"
    INDEX 01 00:48:55
  TRACK 72 AUDIO
    TITLE "12:cjc026_07724"
    INDEX 01 00:49:06
  TRACK 73 AUDIO
    TITLE "0:"
    INDEX 01 00:50:01
